<svg xmlns="http://www.w3.org/2000/svg" xmlns:xlink="http://www.w3.org/1999/xlink" width="120" zoomAndPan="magnify" viewBox="0 0 90 89.999999" height="120" preserveAspectRatio="xMidYMid meet" version="1.0"><defs><g/><clipPath id="9c65c93f92"><path d="M 8.066406 18 L 65 18 L 65 27 L 8.066406 27 Z M 8.066406 18 " clip-rule="nonzero"/></clipPath><clipPath id="8cba31b081"><path d="M 70.011719 16.984375 L 81.566406 16.984375 L 81.566406 28.242188 L 70.011719 28.242188 Z M 70.011719 16.984375 " clip-rule="nonzero"/></clipPath><clipPath id="2e288259a1"><path d="M 8.066406 40 L 65 40 L 65 50 L 8.066406 50 Z M 8.066406 40 " clip-rule="nonzero"/></clipPath><clipPath id="cb9c923d63"><path d="M 70 39 L 81.566406 39 L 81.566406 51 L 70 51 Z M 70 39 " clip-rule="nonzero"/></clipPath><clipPath id="eec689cfb9"><path d="M 8.066406 63 L 65 63 L 65 72 L 8.066406 72 Z M 8.066406 63 " clip-rule="nonzero"/></clipPath><clipPath id="004beee7bf"><path d="M 70 61 L 81.566406 61 L 81.566406 73 L 70 73 Z M 70 61 " clip-rule="nonzero"/></clipPath></defs><g fill="#000000" fill-opacity="1"><g transform="translate(44.463865, 46.122069)"><g><path d="M 0.296875 -0.203125 C 0.296875 -0.296875 0.316406 -0.363281 0.359375 -0.40625 C 0.398438 -0.445312 0.457031 -0.46875 0.53125 -0.46875 C 0.601562 -0.46875 0.660156 -0.445312 0.703125 -0.40625 C 0.742188 -0.363281 0.765625 -0.296875 0.765625 -0.203125 C 0.765625 -0.117188 0.742188 -0.0507812 0.703125 0 C 0.660156 0.0390625 0.601562 0.0625 0.53125 0.0625 C 0.457031 0.0625 0.398438 0.0390625 0.359375 0 C 0.316406 -0.0390625 0.296875 -0.109375 0.296875 -0.203125 Z M 0.296875 -0.203125 "/></g></g></g><g clip-path="url(#9c65c93f92)"><path fill="#ffffff" d="M 8.429688 22.476562 C 8.429688 24.789062 10.304688 26.664062 12.617188 26.664062 L 60.351562 26.664062 C 62.664062 26.664062 64.539062 24.789062 64.539062 22.476562 C 64.539062 20.164062 62.664062 18.289062 60.351562 18.289062 L 12.617188 18.289062 C 10.304688 18.289062 8.429688 20.164062 8.429688 22.476562 " fill-opacity="1" fill-rule="nonzero"/></g><g clip-path="url(#8cba31b081)"><path fill="#ffffff" d="M 75.984375 16.984375 L 75.703125 16.984375 C 72.621094 16.984375 70.121094 19.484375 70.121094 22.570312 C 70.121094 25.652344 72.621094 28.152344 75.703125 28.152344 L 75.984375 28.152344 C 79.066406 28.152344 81.566406 25.652344 81.566406 22.570312 C 81.566406 19.484375 79.066406 16.984375 75.984375 16.984375 " fill-opacity="1" fill-rule="nonzero"/></g><g clip-path="url(#2e288259a1)"><path fill="#ffffff" d="M 12.617188 49.132812 L 60.351562 49.132812 C 62.664062 49.132812 64.539062 47.261719 64.539062 44.945312 C 64.539062 42.632812 62.664062 40.757812 60.351562 40.757812 L 12.617188 40.757812 C 10.304688 40.757812 8.429688 42.632812 8.429688 44.945312 C 8.429688 47.261719 10.304688 49.132812 12.617188 49.132812 " fill-opacity="1" fill-rule="nonzero"/></g><g clip-path="url(#cb9c923d63)"><path fill="#ffffff" d="M 75.703125 50.53125 L 75.984375 50.53125 C 79.066406 50.53125 81.566406 48.03125 81.566406 44.945312 C 81.566406 41.863281 79.066406 39.363281 75.984375 39.363281 L 75.703125 39.363281 C 72.621094 39.363281 70.121094 41.863281 70.121094 44.945312 C 70.121094 48.03125 72.621094 50.53125 75.703125 50.53125 " fill-opacity="1" fill-rule="nonzero"/></g><g clip-path="url(#eec689cfb9)"><path fill="#ffffff" d="M 64.539062 67.417969 C 64.539062 65.105469 62.664062 63.230469 60.351562 63.230469 L 12.617188 63.230469 C 10.304688 63.230469 8.429688 65.105469 8.429688 67.417969 C 8.429688 69.730469 10.304688 71.605469 12.617188 71.605469 L 60.351562 71.605469 C 62.664062 71.605469 64.539062 69.730469 64.539062 67.417969 " fill-opacity="1" fill-rule="nonzero"/></g><g clip-path="url(#004beee7bf)"><path fill="#ffffff" d="M 75.703125 73 L 75.984375 73 C 79.066406 73 81.566406 70.5 81.566406 67.417969 C 81.566406 64.335938 79.066406 61.835938 75.984375 61.835938 L 75.703125 61.835938 C 72.621094 61.835938 70.121094 64.335938 70.121094 67.417969 C 70.121094 70.5 72.621094 73 75.703125 73 " fill-opacity="1" fill-rule="nonzero"/></g></svg>