<svg xmlns="http://www.w3.org/2000/svg" xmlns:xlink="http://www.w3.org/1999/xlink" width="120" zoomAndPan="magnify" viewBox="0 0 90 89.999999" height="120" preserveAspectRatio="xMidYMid meet" version="1.0"><defs><clipPath id="3ac55835c3"><path d="M 2.699219 2.699219 L 87.300781 2.699219 L 87.300781 87.300781 L 2.699219 87.300781 Z M 2.699219 2.699219 " clip-rule="nonzero"/></clipPath><clipPath id="59314c1f66"><path d="M 45 2.699219 C 21.636719 2.699219 2.699219 21.636719 2.699219 45 C 2.699219 68.363281 21.636719 87.300781 45 87.300781 C 68.363281 87.300781 87.300781 68.363281 87.300781 45 C 87.300781 21.636719 68.363281 2.699219 45 2.699219 Z M 45 2.699219 " clip-rule="nonzero"/></clipPath><clipPath id="4395cff0a7"><path d="M 0.699219 0.699219 L 85.300781 0.699219 L 85.300781 85.300781 L 0.699219 85.300781 Z M 0.699219 0.699219 " clip-rule="nonzero"/></clipPath><clipPath id="71d4a57fa1"><path d="M 43 0.699219 C 19.636719 0.699219 0.699219 19.636719 0.699219 43 C 0.699219 66.363281 19.636719 85.300781 43 85.300781 C 66.363281 85.300781 85.300781 66.363281 85.300781 43 C 85.300781 19.636719 66.363281 0.699219 43 0.699219 Z M 43 0.699219 " clip-rule="nonzero"/></clipPath><clipPath id="e6f13238ba"><rect x="0" width="86" y="0" height="86"/></clipPath><clipPath id="c7f3b1fdce"><path d="M 28.8125 25.320312 L 61.0625 25.320312 L 61.0625 64.320312 L 28.8125 64.320312 Z M 28.8125 25.320312 " clip-rule="nonzero"/></clipPath></defs><g clip-path="url(#3ac55835c3)"><g clip-path="url(#59314c1f66)"><g transform="matrix(1, 0, 0, 1, 2, 2)"><g clip-path="url(#e6f13238ba)"><g clip-path="url(#4395cff0a7)"><g clip-path="url(#71d4a57fa1)"><path fill="#161149" d="M 0.699219 0.699219 L 85.300781 0.699219 L 85.300781 85.300781 L 0.699219 85.300781 Z M 0.699219 0.699219 " fill-opacity="1" fill-rule="nonzero"/></g></g></g></g></g></g><g clip-path="url(#c7f3b1fdce)"><path fill="#ffffff" d="M 50.183594 28.441406 C 55.257812 28.433594 57.835938 28.425781 57.914062 28.425781 C 59.140625 28.378906 60.078125 28.464844 60.828125 29.496094 C 61.316406 30.160156 61.148438 31.453125 61.160156 31.996094 C 61.175781 33.09375 60.410156 33.847656 59.367188 33.925781 C 59.289062 33.933594 59.226562 33.992188 59.21875 34.070312 C 58.175781 43.753906 57.292969 52.421875 56.566406 60.078125 C 56.433594 61.472656 56.242188 62.363281 55.996094 62.75 C 55.535156 63.46875 54.925781 64.007812 54.167969 64.363281 C 53.726562 64.574219 52.945312 64.671875 51.832031 64.664062 C 46.457031 64.628906 42.160156 64.628906 38.941406 64.664062 C 37.378906 64.679688 36.375 64.574219 35.929688 64.347656 C 35.105469 63.933594 34.492188 63.324219 34.085938 62.53125 C 33.890625 62.152344 33.730469 61.300781 33.601562 59.976562 C 32.554688 49.273438 31.683594 40.664062 30.984375 34.148438 C 30.976562 34.066406 30.90625 34 30.820312 33.996094 C 28.9375 33.894531 28.714844 32.386719 28.839844 30.742188 C 28.953125 29.230469 29.785156 28.46875 31.339844 28.460938 C 31.914062 28.453125 34.75 28.445312 39.851562 28.433594 C 39.925781 28.433594 39.980469 28.375 39.980469 28.304688 C 39.964844 27.023438 40.433594 26.121094 41.398438 25.605469 C 41.765625 25.40625 42.398438 25.3125 43.292969 25.324219 C 44.804688 25.347656 45.964844 25.347656 46.773438 25.324219 C 48.847656 25.269531 49.9375 26.261719 50.035156 28.300781 C 50.039062 28.378906 50.105469 28.441406 50.183594 28.441406 M 41.394531 28.425781 L 48.617188 28.4375 C 48.65625 28.4375 48.6875 28.40625 48.6875 28.367188 L 48.691406 28.035156 C 48.691406 27.28125 48.125 26.667969 47.425781 26.667969 L 42.597656 26.65625 C 41.894531 26.65625 41.324219 27.265625 41.324219 28.019531 L 41.324219 28.355469 C 41.324219 28.394531 41.355469 28.425781 41.394531 28.425781 M 30.804688 32.6875 L 59.1875 32.6875 C 59.574219 32.6875 59.890625 32.371094 59.890625 31.984375 L 59.890625 31.042969 C 59.890625 30.3125 59.253906 29.71875 58.46875 29.71875 L 31.527344 29.71875 C 30.742188 29.71875 30.105469 30.3125 30.105469 31.042969 L 30.105469 31.984375 C 30.105469 32.371094 30.417969 32.6875 30.804688 32.6875 M 45.089844 63.335938 C 47.71875 63.335938 50.140625 63.332031 52.34375 63.328125 C 53.40625 63.328125 54.171875 62.980469 54.640625 62.285156 C 54.910156 61.882812 55.105469 61.042969 55.230469 59.757812 C 55.910156 52.644531 56.773438 44.109375 57.824219 34.144531 C 57.832031 34.074219 57.777344 34.011719 57.707031 34.011719 C 51.9375 34.007812 47.734375 34.003906 45.097656 34.003906 C 42.457031 34.003906 38.253906 34.003906 32.488281 34.007812 C 32.414062 34.007812 32.359375 34.070312 32.367188 34.140625 C 33.414062 44.105469 34.273438 52.640625 34.949219 59.753906 C 35.074219 61.035156 35.269531 61.878906 35.539062 62.28125 C 36.007812 62.976562 36.773438 63.324219 37.835938 63.328125 C 40.042969 63.328125 42.457031 63.332031 45.089844 63.335938 Z M 45.089844 63.335938 " fill-opacity="1" fill-rule="nonzero"/></g><path fill="#ffffff" d="M 45.714844 58.609375 C 45.714844 58.960938 45.429688 59.246094 45.078125 59.246094 L 45.027344 59.246094 C 44.671875 59.246094 44.386719 58.960938 44.386719 58.609375 L 44.386719 38.394531 C 44.386719 38.039062 44.671875 37.753906 45.027344 37.753906 L 45.078125 37.753906 C 45.429688 37.753906 45.714844 38.039062 45.714844 38.394531 Z M 45.714844 58.609375 " fill-opacity="1" fill-rule="nonzero"/><path fill="#ffffff" d="M 51.167969 58.675781 C 51.132812 59.042969 50.808594 59.316406 50.441406 59.285156 L 50.425781 59.285156 C 50.054688 59.25 49.78125 58.925781 49.816406 58.558594 L 51.574219 38.457031 C 51.605469 38.085938 51.933594 37.816406 52.300781 37.847656 L 52.316406 37.847656 C 52.683594 37.878906 52.957031 38.207031 52.925781 38.574219 Z M 51.167969 58.675781 " fill-opacity="1" fill-rule="nonzero"/><path fill="#ffffff" d="M 40.355469 58.511719 C 40.386719 58.882812 40.113281 59.207031 39.742188 59.242188 L 39.730469 59.242188 C 39.359375 59.273438 39.03125 59 39 58.632812 L 37.214844 38.644531 C 37.183594 38.273438 37.457031 37.945312 37.824219 37.914062 L 37.839844 37.910156 C 38.210938 37.878906 38.535156 38.152344 38.570312 38.523438 Z M 40.355469 58.511719 " fill-opacity="1" fill-rule="nonzero"/></svg>